<svg width="16" height="14" viewBox="0 0 16 14" fill="none" xmlns="http://www.w3.org/2000/svg">
<path d="M15.9318 2.38061C15.3662 2.63926 14.7634 2.8107 14.135 2.89394C14.7815 2.4916 15.2749 1.85934 15.5069 1.09727C14.9041 1.47187 14.2386 1.73646 13.5294 1.88412C12.9571 1.24889 12.1414 0.855469 11.2515 0.855469C9.52508 0.855469 8.13517 2.31619 8.13517 4.10692C8.13517 4.36457 8.15608 4.61232 8.20742 4.84818C5.61488 4.71638 3.32085 3.42115 1.77978 1.44808C1.51073 1.93466 1.35291 2.4916 1.35291 3.09115C1.35291 4.21692 1.90907 5.21485 2.73808 5.7926C2.23706 5.78269 1.74555 5.63106 1.32915 5.39223C1.32915 5.40214 1.32915 5.41503 1.32915 5.42791C1.32915 7.00755 2.41009 8.31963 3.82757 8.62188C3.57374 8.69422 3.29709 8.72891 3.00998 8.72891C2.81033 8.72891 2.60878 8.71702 2.41959 8.67341C2.82364 9.96071 3.97018 10.9071 5.33347 10.9378C4.2725 11.803 2.92536 12.3242 1.467 12.3242C1.21126 12.3242 0.965982 12.3123 0.720703 12.2796C2.10206 13.2082 3.73916 13.7384 5.5046 13.7384C11.243 13.7384 14.3803 8.78341 14.3803 4.48845C14.3803 4.34475 14.3755 4.20602 14.3689 4.06827C14.9878 3.61043 15.5078 3.03863 15.9318 2.38061Z" fill="#080809"/>
</svg>
